<svg xmlns="http://www.w3.org/2000/svg" xml:space="preserve" width="2000" height="125" data-id="lg_e12Vvz5SzGJM1BXif2" data-version="1" viewBox="0 0 2000 125"><g data-padding="20"><g transform="translate(10 2.228)scale(.96435)"><rect width="584.128" height="129.95" x="485.643" y="-65.142" fill="none" rx="0" ry="0" transform="matrix(.96 0 0 .96 280 62.66)"/><path fill="#38e7ff" d="M816.089 23.69q3.07 15.26 5.16 26.17 2.1 10.91 3.41 18.33 1.32 7.41 2.05 12.12.72 4.7.99 7.49.27 2.8.3 4.44.02 1.63-.08 3.03-2.42 1.51-5.27 2.18t-5.7.72q-4.14.06-7.79-1.12-3.65-1.19-5.59-3.23l4.35-14.62-1.02-4.67h-2.9q-2.74-.16-6.5-.43t-7.15-.54q-.54 4.52-1.29 8.92-.75 4.41-2.28 7.98-1.54 3.58-4.25 5.67-2.71 2.1-7.23 2.04-4.51-.1-8.46-2.36t-5.51-6.23l2.42-8.76 7.09.59 9.35-47.03q-3.76-.53-6.98-1.18-3.23-.64-5.38-1.45.11-2.79.89-6.18t2.28-6.56q1.51-3.17 3.71-5.16 10.75 1.78 21.04 4.28t20.34 5.56m-22.19 12.25q-.16 2.37-.46 6.64t-.78 9.62-1.07 10.88l6.74-.67q3.52-.35 5.94-.56l-5.75-25.53q-1.08-.11-2.23-.22-1.16-.1-2.39-.16m64.7 62.23q-4.84-.21-9.46-1.04-4.62-.84-8.35-1.75-3.74-.91-5.94-1.24-2.69-4.89-2.61-8.38t1.18-5.67q1.11-2.18 1.54-3.09 5.69.16 10.77 3.01t9.49 6.07l2.63-1.29q.27-1.56.35-3.54.08-1.99-.03-3.5-2.42-.7-5.91-1.99-3.44-1.29-7.34-3.03-3.89-1.75-7.12-3.71-3.22-1.96-4.67-3.84-.43-1.61-.67-4.22-.25-2.61-.35-5.43-.11-2.82-.14-5.05-.02-2.23-.02-3.09 0-1.61 1.88-3.66 1.88-2.04 4.19-3.81t3.49-2.47q1.67-1.02 4.19-2.18 2.53-1.15 5.16-2.01 2.64-.86 4.68-.86 2.36 0 5.45 1.72 3.09 1.71 5.46 2.68l8.65 2.9q1.4 4.89-.7 10.35-2.09 5.45-6.77 10.29-2.2-.91-4.97-2.98t-5.4-4.7q-2.64-2.64-4.46-5.11l-1.4.48-.48 10q1.88.97 5.21 2.96 3.33 1.98 7.07 4.4 3.73 2.42 6.9 4.89t4.73 4.41q.22 3.33-.27 6.93-.48 3.6-1.45 6.45-3.12 3.06-6.66 5.7-3.55 2.63-7.85 4.4m79.71.06q-4.25 0-8.06-.94-3.82-.94-5.81-2.72.27-4.56.81-7.04.54-2.47 1.18-4.19l-3.49-12.52q-1.34 4.57-2.8 9.32-1.45 4.76-3.17 8.9.81 2.26.81 5.75-1.02 1.66-4.33 2.52-3.3.86-7.17.86-4.03 0-7.85-.91-3.81-.91-5.75-2.69.43-5.53.84-8.08.4-2.56 1.26-4.6l-8.22-22.03-8.28-14.78q0-2.96 2.23-5.54t5.48-4.19 6.26-1.61 5.57 1.13q2.55 1.13 3.84 3.49.16 1.13.8 4.49.65 3.36 1.59 8.09t1.91 10.07q.96 5.35 1.82 10.48t1.35 9.22l.7.05q1.29-3.65 2.47-8.01 1.18-4.35 2.09-8.46.92-4.11 1.24-6.91-2.47-2.04-4.86-4.24t-4.28-6.13q1.29-3.71 4.28-6.85 2.98-3.14 6.66-5.24 3.68-2.09 7.12-2.52 3.98 3.17 6.48 8.92t2.93 11.17l-.11.06q1.07 4.46 2.15 9.51 1.07 5.05 1.93 9.89t1.24 8.7h.81q1.34-3.65 2.55-7.98 1.21-4.32 2.12-8.41.91-4.08 1.24-6.88-2.48-2.04-4.87-4.24t-4.27-6.13q1.29-3.71 4.27-6.85 2.99-3.14 6.67-5.24 3.68-2.09 7.12-2.52 3.97 3.17 6.47 8.92t2.93 11.17q-.8 1.83-2.36 5.43t-3.66 8.2q-2.09 4.59-4.56 9.56-2.48 4.97-5.06 9.65.97 1.77 1.8 4 .84 2.23 1.54 5.4-1.99 1.78-5.75 2.64-3.77.86-7.85.86m76.84-.01q-2.47.05-5.38-1.48-2.9-1.53-5.1-3.9-1.02-1.07-2.04-2.52t-.65-5.05q.43-4.09.86-7.47.43-3.39.97-6.99l-.81-.38q-1.13 2.85-2.71 6.67-1.59 3.81-3.49 7.74-1.91 3.92-3.9 7.14-1.99 3.23-3.87 4.89-1.5 1.19-3.01 1.29-1.45.06-2.9-.75-1.45-.8-3.06-1.93-1.29-.97-2.96-1.83t-2.9-1.93q-1.24-1.08-1.29-2.48 0-1.13.11-4.13.1-3.01.05-5.16-.05-4.25-.54-9.87-.48-5.61-1.34-11.23-.86-5.61-2.2-9.81-.65-2.2-.65-2.95 0-1.08 1.34-2.96 3.28-4.24 7.45-6.5 4.16-2.26 7.57-3.17 3.42-.91 4.44-1.02 4.3 2.95 7.55 7.36t5.67 8.55q-.06-4.79-.24-8.36-.19-3.57-.19-4.86.86-.6 3.38-1.05 2.53-.46 5.65-.46 9.4 0 14.88 6.5.11 1.03-.29 4.28-.41 3.25-1.24 7.82-.83 4.56-2.04 9.7-1.21 5.13-2.63 10.02-1.43 4.89-3.04 8.65l9.3-4.94 4.56 6.5q-1.82 4.3-4.21 7.93-2.4 3.62-5.19 5.85t-5.91 2.29m-26.07-20.05 1.62.75q1.5-1.45 3.22-4.05 1.72-2.61 3.39-5.54 1.66-2.93 3.01-5.51 1.34-2.58 1.98-3.97.11-1.08.11-1.13v-3.17q-3.22-.81-6.07-1.35-2.85-.53-5.43-1.12l.06 5.75q.1 4.89-.41 9.67t-1.48 9.67m60.62 20q-3.44 0-7.44-1.15-4-1.16-6.05-3.47.76-4.35 1.35-7.15.59-2.79 1.15-4.86.57-2.07 1.27-4.22-.81-1.88-1.86-5.8t-2.15-8.76-2.04-9.51q-.94-4.68-1.5-8.17-.57-3.5-.57-4.62 0-.11.03-.22t.03-.16q1.29-2.15 4-3.57 2.71-1.43 5.96-2.13 3.26-.69 6.16-.69 2.52 0 4.54.43 2.01.42 3.25 1.55l-3.92 33.65.86.16q2.68-8.82 4.81-17.63 2.12-8.81 5.72-17.36 1.56-.48 3.39-.64 1.82-.16 3.76-.16 5.21 0 10.21 1.66 5 1.67 8.65 5.97 0 3.44-.67 8.25t-1.85 10.23q-1.19 5.43-2.77 10.78-1.59 5.35-3.42 9.81l9.14-4.79 4.78 6.51q-1.12 3.44-3.44 7.17-2.31 3.74-5.26 6.31-2.96 2.58-6.07 2.58-2.53 0-5.38-1.42t-4.84-3.52q-1.88-1.99-2.63-3.71t-.64-4.3l1.34-29.61-1.56-.48q-2.63 5.75-5.21 11.23t-5.59 11.39q1.34 3.93 2.44 8.25 1.11 4.33 2.07 9.81-1.82 1.29-4.35 1.83-2.53.53-5.7.53m69.54-.01q-2.47 0-5.5-1.23-3.04-1.24-5.83-3.28-2.8-2.04-4.63-4.51-1.82-2.48-1.93-4.95 0-.7.24-2.01.24-1.32.99-4.09.76-2.77 2.26-7.66l-2.68-19.24-5.16-.32q-.81-2.2-1-5.1-.19-2.91-.08-4.41l6.02-2.1 3.28-19.5q1.29-.7 4.16-.94 2.88-.25 6.24.21t5.94 1.85l-.6 15.11 11.93-2.42q2.21 3.71 2.26 7.15.06 3.43-.78 6.15-.83 2.71-1.42 4.27-2.47.22-5.94.43-3.47.22-6.58.32l.1 28.43 11.61-9.56 6.83 7.57q-.75 1.99-2.9 5.27t-5.08 6.64-6.02 5.64-5.73 2.28m39.89.01q-3.98 0-8.11-1.15-4.14-1.16-6.18-3.47.75-4.35 1.31-7.15.57-2.79 1.16-4.86t1.29-4.22q0-.05.02-.05.03 0 .03-.05-.75-1.56-1.75-6.08-.99-4.51-2.04-10.69t-2.01-12.87q-.97-6.69-1.78-12.79-.8-6.1-1.26-10.43t-.46-5.61q0-.17.03-.27.03-.11.03-.16 2.47-3.18 7.2-5.57t9.56-2.39q2.37 0 4.52.59t3.98 1.99q-.22 13.6-1.7 27.76-1.47 14.16-2.76 28.56l.69.16.22.06q2.74-8.82 5.02-17.63 2.29-8.81 5.83-17.36.86-.21 2.77-.56t4.22-.35q3.01 0 8.28 1.69 5.26 1.69 10.69 6.05 0 3.44-.67 8.25t-1.85 10.23q-1.19 5.43-2.77 10.78-1.59 5.35-3.41 9.81l9.13-4.79 4.78 6.51q-1.12 3.44-3.44 7.17-2.31 3.74-5.26 6.31-2.96 2.58-6.07 2.58-2.53 0-5.38-1.42t-4.84-3.52q-3.49-3.65-3.27-8.01l1.34-29.61-1.45-.48q-2.63 5.75-5.24 11.23t-5.67 11.39q1.34 3.93 2.63 8.28t1.88 9.78q-1.77 1.29-4.19 1.83-2.42.53-5.05.53m86.57 0q-4.79 0-8.52-1.21-3.74-1.2-5.89-3.19.27-5.27 1.13-11.21t2.1-11.42q1.23-5.48 2.52-9.29-1.88-5.7-3.3-12.85t-2.55-14.29q-1.13-7.15-2.1-12.79 1.02-1.56 3.52-3.17 2.5-1.62 6.05-2.72 3.54-1.1 7.52-1.1 2.53 0 4.76.48 2.23.49 4.16 1.67l-3.87 44.82q1.24-.16 2.69-.32t3.01-.33q2.09-3.97 4.49-9.21 2.39-5.24 4.32-10.24 1.94-5 2.64-8.28l-7.58-2.68q.59-5.75 2.93-10.48 2.33-4.73 6.2-6.51 2.32 0 6.13.92 3.82.91 7.82 2.98t6.8 5.62q-.49 4.08-2.37 8.97t-4.62 10.02q-2.74 5.14-5.83 10.03t-5.99 8.97q1.13 2.15 2.82 5.21 1.69 3.07 3.65 6.02 1.97 2.96 3.9 4.84 1.83-.64 3.66-1.88 1.82-1.24 3.6-2.74l6.34 5.48q0 4.25-1.64 8.38-1.64 4.14-3.41 6.72-1.67 2.42-4.14 3.57-2.47 1.16-5.48 1.16-3.07 0-6.56-1.13-3.22-1.02-5.32-4t-3.49-6.69q-1.24-3.28-2.07-7.18-.84-3.89-1.27-6.85l-5.4-.43q-2.76-.21-5.02-.48 1.02 5.8 1.91 12.22.88 6.43 1.26 12.5-1.72 1.13-4.19 1.61t-5.32.48"/></g><path fill="transparent" stroke="transparent" d="M719.5 0h561v125h-561z"/></g></svg>